{"title":"Rasputin (1996) DVDRip x264 English","uid":14396520,"size":1383850286,"categoryP":"video","categoryS":"movies","magnet":"?xt=urn:btih:b34ce4aa004f215deadf63acfb2d8b9310cba3e1&amp;dn=Rasputin+%281996%29+DVDRip+x264+English&amp;tr=udp%3A%2F%2Ftracker.leechers-paradise.org%3A6969&amp;tr=udp%3A%2F%2Fzer0day.ch%3A1337&amp;tr=udp%3A%2F%2Fopen.demonii.com%3A1337&amp;tr=udp%3A%2F%2Ftracker.coppersurfer.tk%3A6969&amp;tr=udp%3A%2F%2Fexodus.desync.com%3A6969","seeders":0,"leechers":2,"uploader":"hs2873","files":1,"time":1461349115,"description":"R | 1h 36min | Biography, Drama, History\r\n\r\nHBO biopic about the infamous &quot;mad monk&quot; Rasputin from the court of Tsar Nicholas in Russia. \r\n\r\n\r\nWikipedia: https://en.wikipedia.org/wiki/Rasputin:_Dark_Servant_of_Destiny\r\n\r\nRasputin: Dark Servant of Destiny is a biographical 1996 TV film which chronicles the last four years (1912–16) of Grigori Rasputin's stint as a healer to Alexei Nikolaevich, Tsarevich of Russia; the heir apparent to the Russian throne as well as the only son of Tsar Nicholas II of Russia and Empress Alexandra Feodorovna; who suffered from hemophilia. The film is narrated in the first person by Alexei.\r\n\r\nRasputin: Dark Servant of Destiny won a Golden Globe for Best Mini-Series or Motion Picture made for TV.\r\nAlan Rickman, starring as Rasputin, won an Emmy (along with Greta Scacchi playing Tsarina Alexandra) and a Golden Globe for his work in this movie.\r\nIan McKellen, playing Tsar Nicholas II, won a Golden Globe for Best Supporting Actor, and was nominated an Emmy for Best Supporting Actor.\r\n\r\n\r\nMediainfo:\r\n\r\nVideo\r\nID                                       : 1\r\nFormat                                   : AVC\r\nFormat/Info                              : Advanced Video Codec\r\nFormat profile                           :   \r\nFormat settings, CABAC                   : Yes\r\nFormat settings, ReFrames                : 4 frames\r\nCodec ID                                 : V_MPEG4/ISO/AVC\r\nDuration                                 : 1h 39mn\r\nBit rate                                 : 1 649 Kbps\r\nWidth                                    : 748 pixels\r\nHeight                                   : 576 pixels\r\nDisplay aspect ratio                     : 1.299\r\nFrame rate mode                          : Constant\r\nFrame rate                               : 25.000 fps\r\nColor space                              : YUV\r\nChroma subsampling                       : 4:2:0\r\nBit depth                                : 8 bits\r\nScan type                                : Progressive\r\nBits/(Pixel*Frame)                       : 0.153\r\nStream size                              : 1.15 GiB (89%)\r\nWriting library                          : x264 core 142 r2491 24e4fed\r\nEncoding settings                        : cabac=1 / ref=3 / deblock=1:0:0 / analyse=0x3:0x113 / me=hex / subme=7 / psy=1 / psy_rd=1,00:0,00 / mixed_ref=1 / me_range=16 / chroma_me=1 / trellis=1 / 8x8dct=1 / cqm=0 / deadzone=21,11 / fast_pskip=1 / chroma_qp_offset=-2 / threads=6 / lookahead_threads=1 / sliced_threads=0 / nr=0 / decimate=1 / interlaced=0 / bluray_compat=0 / constrained_intra=0 / bframes=3 / b_pyramid=2 / b_adapt=1 / b_bias=0 / direct=1 / weightb=1 / open_gop=0 / weightp=2 / keyint=250 / keyint_min=25 / scenecut=40 / intra_refresh=0 / rc_lookahead=40 / rc=crf / mbtree=1 / crf=20,0 / qcomp=0,60 / qpmin=0 / qpmax=69 / qpstep=4 / vbv_maxrate=62500 / vbv_bufsize=78125 / crf_max=0,0 / nal_hrd=none / filler=0 / ip_ratio=1,40 / aq=1:1,00\r\nDefault                                  : Yes\r\nForced                                   : No\r\nColor range                              : Limited\r\nColor primaries                          : BT.601 PAL\r\nTransfer characteristics                 : BT.709\r\nMatrix coefficients                      : BT.601\r\n\r\nAudio\r\nID                                       : 2\r\nFormat                                   : Vorbis\r\nFormat settings, Floor                   : 1\r\nCodec ID                                 : A_VORBIS\r\nDuration                                 : 1h 39mn\r\nBit rate mode                            : Variable\r\nBit rate                                 : 160 Kbps\r\nChannel(s)                               : 2 channels\r\nSampling rate                            : 48.0 KHz\r\nCompression mode                         : Lossy\r\nStream size                              : 114 MiB (9%)\r\nTitle                                    : Stereo\r\nWriting application                      : HandBrake\r\nWriting library                          : aoTuV 20110424 (UTC 2011-04-24)\r\nLanguage                                 : English\r\nDefault                                  : Yes\r\nForced                                   : No","torrent":{"xt":"urn:btih:b34ce4aa004f215deadf63acfb2d8b9310cba3e1","amp;dn":"Rasputin+%281996%29+DVDRip+x264+English","amp;tr":["udp%3A%2F%2Ftracker.leechers-paradise.org%3A6969","udp%3A%2F%2Fzer0day.ch%3A1337","udp%3A%2F%2Fopen.demonii.com%3A1337","udp%3A%2F%2Ftracker.coppersurfer.tk%3A6969","udp%3A%2F%2Fexodus.desync.com%3A6969"],"infoHash":"b34ce4aa004f215deadf63acfb2d8b9310cba3e1","infoHashBuffer":{"type":"Buffer","data":[179,76,228,170,0,79,33,93,234,223,99,172,251,45,139,147,16,203,163,225]},"announce":[],"urlList":[]}}